D:\school\WTK\thesis\model\3dpredictsim\Results\Batchsim_tmt_linear_v2\Pog_s1_tmt_aCst_d02_k1000_ig24_pas_GRF.mot
nRows=25
nColumns=19

name D:\school\WTK\thesis\model\3dpredictsim\Results\Batchsim_tmt_linear_v2\Pog_s1_tmt_aCst_d02_k1000_ig24_pas_GRF.mot
datacolumns 19
datarows 25
range 0.5381101839 0.7964030721
endheader
time 	ground_force_vx	ground_force_vy	ground_force_vz	ground_force_px	ground_force_py	ground_force_pz	1_ground_force_vx	1_ground_force_vy	1_ground_force_vz	1_ground_force_px	1_ground_force_py	1_ground_force_pz	ground_torque_x	ground_torque_y	ground_torque_z	1_ground_torque_x	1_ground_torque_y	1_ground_torque_z
        0.5381101839	      126.6076456294	      526.8578064266	       -4.4643692457	        0.3262119528	        0.0000000000	        0.0488988906	      -58.9914754837	       41.2508187980	      -10.5334493765	        0.8355067931	        0.0000000000	       -0.0469347855	        0.0000000000	        0.0000000000	        0.0000000000	        0.0000000000	        0.0000000000	        0.0000000000	
        0.5488723876	      100.6312008840	      438.3657104951	        0.6405577279	        0.3363145838	        0.0000000000	        0.0476007371	     -109.5197266525	       94.6088416138	      -26.5939131188	        0.8459591769	        0.0000000000	       -0.0450294926	        0.0000000000	        0.0000000000	        0.0000000000	        0.0000000000	        0.0000000000	        0.0000000000	
        0.5596345912	       66.1134656826	      335.9216523487	        6.5324934591	        0.3525787160	        0.0000000000	        0.0451356376	     -113.2090721428	      204.7555915943	      -50.8535188627	        0.8527643445	        0.0000000000	       -0.0440281129	        0.0000000000	        0.0000000000	        0.0000000000	        0.0000000000	        0.0000000000	        0.0000000000	
        0.5703967949	       30.7672283513	      236.3166815663	        5.6876076024	        0.3781265354	        0.0000000000	        0.0407129452	      -61.8342194394	      374.2114127237	       -8.2810115614	        0.8577459514	        0.0000000000	       -0.0432110610	        0.0000000000	        0.0000000000	        0.0000000000	        0.0000000000	        0.0000000000	        0.0000000000	
        0.5811589986	        7.2816211591	      161.4886176901	        8.8157908425	        0.4089688369	        0.0000000000	        0.0334344355	      -72.4624332037	      585.7239691849	        6.4936693125	        0.8662619643	        0.0000000000	       -0.0453795037	        0.0000000000	        0.0000000000	        0.0000000000	        0.0000000000	        0.0000000000	        0.0000000000	
        0.5919212023	       -1.3537519065	      134.5418294958	       12.4806868955	        0.4131523501	        0.0000000000	        0.0322997063	     -111.4901050040	      792.9108144174	       14.2882394505	        0.8748741881	        0.0000000000	       -0.0479785316	        0.0000000000	        0.0000000000	        0.0000000000	        0.0000000000	        0.0000000000	        0.0000000000	
        0.6026834059	       -2.0788674967	      101.4522314690	       14.2106217474	        0.4137539110	        0.0000000000	        0.0325125115	     -128.1377900808	      898.1568273797	       17.7891127306	        0.8806826524	        0.0000000000	       -0.0495818212	        0.0000000000	        0.0000000000	        0.0000000000	        0.0000000000	        0.0000000000	        0.0000000000	
        0.6134456096	       -4.9392742071	       65.0232591794	       13.2959776596	        0.4142331072	        0.0000000000	        0.0326423212	     -125.2509168531	      905.3981553370	       18.1576910771	        0.8849177525	        0.0000000000	       -0.0506265884	        0.0000000000	        0.0000000000	        0.0000000000	        0.0000000000	        0.0000000000	        0.0000000000	
        0.6242078133	       -8.9773150064	       26.9680104023	        6.6999985022	        0.4139024584	        0.0000000000	        0.0323077132	     -115.1379540403	      869.4632485626	       17.6546420664	        0.8885740396	        0.0000000000	       -0.0513810643	        0.0000000000	        0.0000000000	        0.0000000000	        0.0000000000	        0.0000000000	        0.0000000000	
        0.6349700170	        0.1678858082	       -0.1668260703	       -0.0142893863	        0.0000000000	        0.0000000000	        0.0000000000	     -102.7625624602	      831.5947921663	       16.0858712913	        0.8924331653	        0.0000000000	       -0.0520208506	        0.0000000000	        0.0000000000	        0.0000000000	        0.0000000000	        0.0000000000	        0.0000000000	
        0.6457322206	        0.0005931145	       -0.0004841088	        0.0000031271	        0.0000000000	        0.0000000000	        0.0000000000	      -93.8106488067	      806.8996644228	       17.1961823888	        0.8975806024	        0.0000000000	       -0.0526846107	        0.0000000000	        0.0000000000	        0.0000000000	        0.0000000000	        0.0000000000	        0.0000000000	
        0.6564944243	        0.0002470941	       -0.0001753924	        0.0000061486	        0.0000000000	        0.0000000000	        0.0000000000	      -86.4056441786	      783.2220471064	       17.1365686758	        0.9037205565	        0.0000000000	       -0.0529061588	        0.0000000000	        0.0000000000	        0.0000000000	        0.0000000000	        0.0000000000	        0.0000000000	
        0.6672566280	        0.0017451090	       -0.0011103750	        0.0000582943	        0.0000000000	        0.0000000000	        0.0000000000	      -77.9659624103	      747.9273645543	       16.8927009802	        0.9096528483	        0.0000000000	       -0.0530200653	        0.0000000000	        0.0000000000	        0.0000000000	        0.0000000000	        0.0000000000	        0.0000000000	
        0.6780188317	        0.0048692502	       -0.0028401170	        0.0001830352	        0.0000000000	        0.0000000000	        0.0000000000	      -69.7864095910	      711.5417429346	       16.5670687237	        0.9154877451	        0.0000000000	       -0.0530121478	        0.0000000000	        0.0000000000	        0.0000000000	        0.0000000000	        0.0000000000	        0.0000000000	
        0.6887810354	       -0.0612691645	        0.0332682626	       -0.0024638997	        0.0000000000	        0.0000000000	        0.0000000000	      -61.9812983904	      680.5963113479	       16.4763155573	        0.9212104206	        0.0000000000	       -0.0529633998	        0.0000000000	        0.0000000000	        0.0000000000	        0.0000000000	        0.0000000000	        0.0000000000	
        0.6995432390	       -0.0432885622	        0.0221214875	       -0.0018311894	        0.0000000000	        0.0000000000	        0.0000000000	      -54.6507539024	      655.8091564634	       16.8588649701	        0.9266493358	        0.0000000000	       -0.0529101310	        0.0000000000	        0.0000000000	        0.0000000000	        0.0000000000	        0.0000000000	        0.0000000000	
        0.7103054427	       -0.0309708707	        0.0150263244	       -0.0013563278	        0.0000000000	        0.0000000000	        0.0000000000	      -48.0423078531	      636.6179899533	       17.2718030638	        0.9317874133	        0.0000000000	       -0.0528438312	        0.0000000000	        0.0000000000	        0.0000000000	        0.0000000000	        0.0000000000	        0.0000000000	
        0.7210676464	       -0.0275838406	        0.0127890507	       -0.0012375328	        0.0000000000	        0.0000000000	        0.0000000000	      -42.0795546452	      621.8380379046	       17.5584754674	        0.9366073461	        0.0000000000	       -0.0527594467	        0.0000000000	        0.0000000000	        0.0000000000	        0.0000000000	        0.0000000000	        0.0000000000	
        0.7318298501	       -0.0314876781	        0.0140260700	       -0.0014379423	        0.0000000000	        0.0000000000	        0.0000000000	      -37.7467924404	      611.4029900937	       18.1300484318	        0.9411075892	        0.0000000000	       -0.0526454227	        0.0000000000	        0.0000000000	        0.0000000000	        0.0000000000	        0.0000000000	        0.0000000000	
        0.7425920537	       -0.0444862570	        0.0191365337	       -0.0020708088	        0.0000000000	        0.0000000000	        0.0000000000	      -34.0860781376	      604.1915899388	       19.0123202514	        0.9452916125	        0.0000000000	       -0.0524991867	        0.0000000000	        0.0000000000	        0.0000000000	        0.0000000000	        0.0000000000	        0.0000000000	
        0.7533542574	       -0.0732887428	        0.0305868529	       -0.0034816779	        0.0000000000	        0.0000000000	        0.0000000000	      -30.5901575070	      598.2210293243	       19.8466618341	        0.9491833833	        0.0000000000	       -0.0523364739	        0.0000000000	        0.0000000000	        0.0000000000	        0.0000000000	        0.0000000000	        0.0000000000	
        0.7641164611	       -0.1317636105	        0.0535689309	       -0.0063699681	        0.0000000000	        0.0000000000	        0.0000000000	      -27.2373486688	      592.5749356842	       20.3344572127	        0.9527799402	        0.0000000000	       -0.0521737748	        0.0000000000	        0.0000000000	        0.0000000000	        0.0000000000	        0.0000000000	        0.0000000000	
        0.7748786648	       -0.2421685256	        0.0962698281	       -0.0118499754	        0.0000000000	        0.0000000000	        0.0000000000	      -23.9673408339	      586.4995653342	       20.6231575726	        0.9560722362	        0.0000000000	       -0.0520142206	        0.0000000000	        0.0000000000	        0.0000000000	        0.0000000000	        0.0000000000	        0.0000000000	
        0.7856408685	       -0.4304889321	        0.1679407750	       -0.0212442824	        0.0000000000	        0.0000000000	        0.0000000000	      -20.6157419492	      579.7334992169	       20.8025702255	        0.9590815535	        0.0000000000	       -0.0518598768	        0.0000000000	        0.0000000000	        0.0000000000	        0.0000000000	        0.0000000000	        0.0000000000	
        0.7964030721	       -0.7178608943	        0.2755576061	       -0.0356317146	        0.0000000000	        0.0000000000	        0.0000000000	      -17.0451899601	      572.0247840312	       20.6972438071	        0.9618319074	        0.0000000000	       -0.0517155207	        0.0000000000	        0.0000000000	        0.0000000000	        0.0000000000	        0.0000000000	        0.0000000000	
